<?xml version="1.0" encoding="UTF-8"?>
<!DOCTYPE svg PUBLIC "-//W3C//DTD SVG 1.0//EN" "http://www.w3.org/TR/2001/REC-SVG-20010904/DTD/svg10.dtd">
<!-- Creator: CorelDRAW 2019 (64-Bit) -->
<svg xmlns="http://www.w3.org/2000/svg" xml:space="preserve" width="208.197mm" height="207.002mm" version="1.0" style="shape-rendering:geometricPrecision; text-rendering:geometricPrecision; image-rendering:optimizeQuality; fill-rule:evenodd; clip-rule:evenodd"
viewBox="0 0 22230 22103"
 xmlns:xlink="http://www.w3.org/1999/xlink"
 xmlns:xodm="http://www.corel.com/coreldraw/odm/2003">
 <defs>
  <style type="text/css">
   <![CDATA[
    .str0 {stroke:black;stroke-width:38;stroke-linecap:round;stroke-linejoin:round;stroke-miterlimit:22.9256}
    .fil0 {fill:black;fill-rule:nonzero}
   ]]>
  </style>
 </defs>
 <g id="Слой_x0020_1">
  <metadata id="CorelCorpID_0Corel-Layer"/>
  <path class="fil0 str0" d="M1556 19451c-538,0 -968,-161 -1237,-466 -233,-269 -305,-627 -287,-860l0 -681c-72,-412 90,-1380 1882,-3048 1757,-1631 2850,-6077 2850,-9268 18,-3693 5235,-4159 5450,-4177l108 0 0 -448c0,-269 215,-484 484,-484l484 0c269,0 484,215 484,484l0 448 215 0c233,18 5486,448 5486,4159 0,3155 1183,7637 2958,9268 1793,1667 1793,2581 1775,3101l0 609c18,323 -18,627 -197,860 -251,323 -645,502 -1201,502l-6963 0 -2 -6c-214,929 -987,2639 -2678,2639l0 0 -143 0c-1744,-99 -2487,-1739 -2641,-2653 -2,7 -4,14 -5,21l-6820 0zm11062 0l-3015 0c140,460 528,1268 1491,1329l108 0c884,0 1272,-848 1416,-1329zm-10888 -1681c17,17 119,68 324,68l18498 0 34 -954 0 -51c0,-119 -102,-698 -1363,-1857 -1959,-1840 -3168,-6439 -3168,-9641 0,-2453 -4105,-2845 -4139,-2845l-1584 0c-426,51 -4105,494 -4105,2845 0,2811 -954,7665 -3049,9624 -1295,1192 -1431,1806 -1448,1925l17 34 -17 852 0 0z"/>
 </g>
</svg>
